<?xml version="1.0" encoding="UTF-8"?>
<svg id="Layer_1" xmlns="http://www.w3.org/2000/svg" version="1.1" viewBox="0 0 24 24">
  <!-- Generator: Adobe Illustrator 30.3.0, SVG Export Plug-In . SVG Version: 2.1.3 Build 182)  -->
  <defs>
    <style>
      .st0 {
        fill: #231f20;
      }
    </style>
  </defs>
  <path class="st0" d="M7,0c-1.3,0-2.1.3-2.9.6-.8.3-1.5.7-2.1,1.4-.7.7-1.1,1.3-1.4,2.1-.3.8-.5,1.6-.6,2.9v9.9c0,1.3.3,2.1.6,2.9s.7,1.5,1.4,2.1c.7.7,1.3,1.1,2.1,1.4.8.3,1.6.5,2.9.6h9.8c1.3,0,2.1-.3,2.9-.6.8-.3,1.5-.7,2.1-1.4.7-.7,1.1-1.3,1.4-2.1.3-.8.5-1.6.6-2.9V7.1c0-1.2-.3-2.1-.6-2.9-.3-.8-.7-1.5-1.4-2.1-.7-.7-1.3-1.1-2.1-1.4-.8-.3-1.6-.5-2.9-.6-1.2,0-1.6,0-4.8,0h-4.9M7.2,21.8c-1.2,0-1.8-.2-2.2-.4-.6-.2-1-.5-1.4-.9s-.7-.8-.9-1.4c-.2-.4-.4-1.1-.4-2.2V7.3c0-1.2.2-1.8.4-2.2.2-.6.5-1,.9-1.4s.8-.7,1.4-.9c.4-.2,1.1-.4,2.2-.4h9.6c1.2,0,1.8.2,2.2.4.6.2,1,.5,1.4.9s.7.8.9,1.4c.2.4.4,1.1.4,2.2v9.6c0,1.2-.2,1.8-.4,2.2-.2.6-.5,1-.9,1.4s-.8.7-1.4.9c-.4.2-1.1.4-2.2.4H7.2M17,5.6c0,.8.6,1.4,1.4,1.4s1.4-.6,1.4-1.4-.6-1.4-1.4-1.4h0c-.8,0-1.4.6-1.4,1.4M5.8,12c0,3.4,2.8,6.2,6.2,6.1,3.4,0,6.2-2.8,6.2-6.2s-2.8-6.2-6.2-6.1-6.2,2.8-6.1,6.2M8,12c0-2.2,1.8-4,4-4s4,1.8,4,4-1.8,4-4,4-4-1.8-4-4h0"/>
</svg>